<svg viewBox="0 0 48.00 48.00" xmlns="http://www.w3.org/2000/svg" fill="#000000"><g id="SVGRepo_bgCarrier" stroke-width="0"></g><g id="SVGRepo_tracerCarrier" stroke-linecap="round" stroke-linejoin="round" stroke="#CCCCCC" stroke-width="1.9200000000000004"></g><g id="SVGRepo_iconCarrier"> <title>law-scale</title> <g id="Layer_2" data-name="Layer 2"> <g id="invisible_box" data-name="invisible box"> <rect width="48" height="48" fill="none"></rect> </g> <g id="Q3_icons" data-name="Q3 icons"> <path d="M46,25,38,5.7h0A38.3,38.3,0,0,0,24,3,38.3,38.3,0,0,0,10,5.7h0L2,25H2v2a8,8,0,0,0,16,0V25h0L11.6,10l.3-.8A34.3,34.3,0,0,1,22,7.1V41H15a2,2,0,0,0,0,4H33a2,2,0,0,0,0-4H26V7.1A34.3,34.3,0,0,1,36.1,9.2l.3.8L30,25h0v2a8,8,0,0,0,16,0V25ZM14.2,25h-9L10,14.3ZM38,14.3,42.2,25h-9Z"></path> </g> </g> </g></svg>